<?xml version="1.0" encoding="UTF-8" standalone="no"?>
<svg
   xmlns:dc="http://purl.org/dc/elements/1.1/"
   xmlns:cc="http://creativecommons.org/ns#"
   xmlns:rdf="http://www.w3.org/1999/02/22-rdf-syntax-ns#"
   xmlns:svg="http://www.w3.org/2000/svg"
   xmlns="http://www.w3.org/2000/svg"
   xmlns:sodipodi="http://sodipodi.sourceforge.net/DTD/sodipodi-0.dtd"
   xmlns:inkscape="http://www.inkscape.org/namespaces/inkscape"
   sodipodi:docname="Logo.svg"
   inkscape:version="1.0 (4035a4fb49, 2020-05-01)"
   id="svg8"
   version="1.1"
   viewBox="0 0 42.334518 14.111115"
   height="14.111115mm"
   width="42.334518mm">
  <defs
     id="defs2">
    <rect
       id="rect12"
       height="41.577381"
       width="324.30356"
       y="28.726191"
       x="-191.25595" />
  </defs>
  <sodipodi:namedview
     fit-margin-bottom="0"
     fit-margin-right="0"
     fit-margin-left="0"
     fit-margin-top="0"
     inkscape:window-maximized="0"
     inkscape:window-y="0"
     inkscape:window-x="76"
     inkscape:window-height="729"
     inkscape:window-width="1274"
     showborder="false"
     showgrid="false"
     inkscape:document-rotation="0"
     inkscape:current-layer="layer1"
     inkscape:document-units="mm"
     inkscape:cy="58.637561"
     inkscape:cx="115.77731"
     inkscape:zoom="2.8"
     inkscape:pageshadow="2"
     inkscape:pageopacity="0.0"
     borderopacity="1.0"
     bordercolor="#666666"
     pagecolor="#ffffff"
     id="base" />
  <metadata
     id="metadata5">
    <rdf:RDF>
      <cc:Work
         rdf:about="">
        <dc:format>image/svg+xml</dc:format>
        <dc:type
           rdf:resource="http://purl.org/dc/dcmitype/StillImage" />
        <dc:title></dc:title>
      </cc:Work>
    </rdf:RDF>
  </metadata>
  <g
     transform="translate(190.40916,-29.667296)"
     id="layer1"
     inkscape:groupmode="layer"
     inkscape:label="Layer 1">
    <path
       d="m -187.31886,41.94396 q -1.03011,0 -1.86267,-0.211667 -0.81844,-0.197555 -1.18533,-0.550333 -0.0141,-0.02822 -0.0282,-0.05644 -0.0141,-0.04233 -0.0141,-0.05644 0,-0.409221 0,-0.945443 0,-0.550333 0,-1.044222 h 0.28222 q 0.635,0.409222 1.32644,0.620889 0.69145,0.197555 1.63689,0.197555 0.91722,0 1.29822,-0.239889 0.381,-0.253999 0.381,-0.550332 v -0.324556 q 0,-0.211666 -0.0705,-0.366888 -0.0706,-0.169334 -0.32456,-0.310445 -0.254,-0.155222 -0.80433,-0.324555 l -1.32645,-0.409222 q -0.70555,-0.211666 -1.17122,-0.507999 -0.46566,-0.310445 -0.73377,-0.649111 -0.254,-0.338666 -0.36689,-0.677333 -0.0988,-0.338666 -0.0988,-0.64911 v -0.606778 q 0,-0.606777 0.254,-1.114777 0.254,-0.507999 0.73378,-0.874888 0.49388,-0.381 1.17122,-0.578555 0.69144,-0.211666 1.53811,-0.211666 0.91722,0 1.66511,0.141111 0.762,0.141111 1.05833,0.437444 0.0282,0.01411 0.0282,0.05644 0.0141,0.02822 0.0141,0.05644 0,0.493889 0,1.058333 0,0.564444 0,0.931333 h -0.28222 q -0.53622,-0.352778 -1.17122,-0.493889 -0.62089,-0.141111 -1.46756,-0.141111 -0.53622,0 -0.88899,0.112889 -0.33867,0.112889 -0.508,0.296333 -0.15523,0.183444 -0.15523,0.381 v 0.253999 q 0,0.254 0.0988,0.423333 0.11289,0.155223 0.381,0.282222 0.26811,0.127 0.762,0.282222 l 1.34056,0.409222 q 0.88899,0.268111 1.36877,0.649111 0.49389,0.366889 0.69145,0.846666 0.19755,0.465666 0.19755,1.03011 v 0.649111 q 0,0.818444 -0.45155,1.439332 -0.45156,0.620889 -1.29823,0.987777 -0.83255,0.352778 -2.01788,0.352778 z m 1.24177,-6.956773 q -0.26811,-0.07055 -0.57855,-0.141111 -0.29633,-0.08467 -0.381,-0.09878 -0.0847,-0.02822 -0.127,-0.07056 -0.0282,-0.05644 -0.0282,-0.141111 0,-0.437444 0,-0.860777 0,-0.437444 0,-0.874888 0,-0.437444 0,-0.860777 0,-0.437444 0,-0.874889 0,-0.169333 0,-0.338666 0,-0.183444 0,-0.352777 0,-0.183445 0,-0.352778 0,-0.183444 0,-0.352777 0.32455,0 0.55033,0 0.22578,0 0.45156,0 0.23988,0 0.55033,0 0.0706,0 0.11289,0.04233 0.0423,0.04233 0.0282,0.141111 -0.0564,0.507999 -0.11289,1.03011 -0.0564,0.508 -0.11289,1.03011 -0.0564,0.508 -0.127,1.030111 -0.0564,0.507999 -0.11289,1.03011 -0.0564,0.508 -0.11289,1.015999 z m -1.60866,3.414887 q 0.23989,0.05644 0.55033,0.141111 0.31045,0.07055 0.40922,0.09878 0.0847,0.01411 0.11289,0.05645 0.0423,0.04233 0.0423,0.155222 0,0.310444 0,0.620888 0,0.310444 0,0.620889 0,0.296333 0,0.606777 0,0.310444 0,0.620888 0,0.310444 0,0.620889 0,0.155222 0,0.39511 0,0.254 0,0.522111 0,0.268111 0,0.508 0,0.254 0,0.409222 -0.32456,0 -0.56445,0 -0.23989,0 -0.47978,0 -0.23988,0 -0.56444,0 -0.0423,0 -0.0847,-0.02822 -0.0282,-0.01411 -0.0423,-0.07056 -0.0141,-0.04233 -0.0141,-0.112889 0.0705,-0.522111 0.127,-1.044221 0.0705,-0.508 0.127,-1.015999 0.0706,-0.522111 0.127,-1.030111 0.0705,-0.52211 0.127,-1.03011 0.0705,-0.522111 0.127,-1.044221 z"
       style="font-size:14.1111px;line-height:1.25;font-family:Recursive;-inkscape-font-specification:'Recursive, @CRSV=0.50,MONO=1.00,wght=800';font-variation-settings:'CRSV' 0, 'MONO' 1, 'wght' 800;white-space:pre;fill:#f2f2f2"
       id="path16" />
    <path
       d="m -176.94437,41.94396 q -1.04423,0 -1.83445,-0.268111 -0.77611,-0.254 -1.29822,-0.747889 -0.508,-0.493888 -0.762,-1.213554 -0.254,-0.733777 -0.254,-1.66511 v -2.808109 q 0,-0.832555 0.254,-1.509888 0.26811,-0.691444 0.77611,-1.185332 0.508,-0.508 1.24178,-0.776111 0.74789,-0.26811 1.69333,-0.26811 0.71967,0 1.29822,0.141111 0.57856,0.126999 0.98778,0.338666 0.40922,0.197555 0.62089,0.423333 0.0423,0.02822 0.0564,0.07055 0.0141,0.04233 0.0141,0.08467 0.0141,0.04233 0.0141,0.09878 0,0.52211 0,1.227665 0,0.691444 0,1.312333 -0.45155,0 -0.91722,0 -0.45155,0 -0.90311,0 -0.0705,0 -0.11289,-0.04233 -0.0423,-0.04233 -0.0423,-0.112888 0,-0.225778 0,-0.465667 0,-0.239888 0,-0.550333 0,-0.310444 0,-0.747888 l 0.39511,0.578555 q -0.32455,-0.197555 -0.67733,-0.268111 -0.33867,-0.07055 -0.77611,-0.07055 -0.508,0 -0.889,0.183444 -0.36689,0.183444 -0.57856,0.578555 -0.19755,0.381 -0.19755,1.001888 v 2.596443 q 0,0.606777 0.11289,1.015999 0.11289,0.409222 0.35277,0.649111 0.23989,0.239888 0.60678,0.338666 0.381,0.08467 0.83256,0.08467 0.762,0 1.35466,-0.155222 0.59267,-0.169334 1.25589,-0.578556 h 0.28222 q 0,0.225778 0,0.437445 0,0.211666 0,0.423333 0,0.197555 0,0.423333 0,0.211666 0,0.451555 0,0.07055 -0.0282,0.127 -0.0141,0.05644 -0.0564,0.09878 -0.18345,0.183445 -0.59267,0.352778 -0.40922,0.169333 -0.98778,0.282222 -0.56444,0.112889 -1.24177,0.112889 z"
       style="font-size:14.1111px;line-height:1.25;font-family:Recursive;-inkscape-font-specification:'Recursive, @CRSV=0.50,MONO=1.00,wght=800';font-variation-settings:'CRSV' 0, 'MONO' 1, 'wght' 800;white-space:pre;fill:#f2f2f2"
       id="path18" />
    <path
       d="m -172.58071,31.783968 h 6.90033 q 0.0706,0 0.11289,0.04233 0.0423,0.04233 0.0423,0.112889 0,0.479777 0,0.874888 0,0.381 0,0.874888 h -6.90033 q -0.0423,0 -0.0847,-0.01411 -0.0282,-0.02822 -0.0564,-0.05644 -0.0141,-0.04233 -0.0141,-0.08467 0,-0.493889 0,-0.874888 0,-0.395111 0,-0.874888 z m 4.65666,9.87777 q -0.52211,0 -1.04422,0 -0.52211,0 -1.05833,0 -0.0706,0 -0.11289,-0.04233 -0.0423,-0.04233 -0.0423,-0.112888 0,-1.128888 0,-2.187221 0,-1.072444 0,-2.130776 0,-1.058333 0,-2.130776 0,-1.072444 0,-2.187221 h 2.4271 l -0.16933,0.423333 q 0,0.268111 0,0.564444 0,0.296333 0,0.578555 0,0.268111 0,0.522111 0,0.888999 0,1.735665 0,0.846666 0,1.721555 0,0.874888 0,1.862665 0,0.381 0,0.733777 0,0.352778 0,0.649111 z"
       style="font-size:14.1111px;line-height:1.25;font-family:Recursive;-inkscape-font-specification:'Recursive, @CRSV=0.50,MONO=1.00,wght=800';font-variation-settings:'CRSV' 0, 'MONO' 1, 'wght' 800;white-space:pre;fill:#f2f2f2"
       id="path20" />
    <path
       d="m -158.57236,37.174408 q 0.35278,0.620888 0.635,1.128888 0.29633,0.507999 0.635,1.128888 0.11289,0.183444 0.19755,0.254 0.0988,0.07056 0.23989,0.07056 0.0565,0 0.0847,0 0.0423,0 0.0988,0 h 0.28222 q 0,0.479778 0,0.874888 0,0.395111 0,0.874889 0,0.07055 -0.0423,0.112888 -0.0423,0.04233 -0.11288,0.04233 -0.0988,0 -0.28223,0 -0.16933,0 -0.31044,0 -0.508,0 -0.84667,-0.07056 -0.33866,-0.07056 -0.57855,-0.268111 -0.23989,-0.197555 -0.43745,-0.578555 -0.35277,-0.691444 -0.70555,-1.382888 -0.33867,-0.691444 -0.70556,-1.382887 z m -5.30577,-5.39044 q 0.95955,0 1.93322,0 0.97366,0 1.93322,0 0.889,0 1.50988,0.211666 0.62089,0.197555 1.00189,0.592666 0.39511,0.395111 0.56445,0.945444 0.18344,0.536222 0.18344,1.213555 v 0.832554 q 0,0.649111 -0.19755,1.171222 -0.19756,0.522111 -0.57856,0.888999 -0.381,0.352778 -0.91722,0.550333 -0.53622,0.183444 -1.21356,0.183444 -0.39511,0 -0.80433,0 -0.39511,0 -0.79022,0 l -0.15522,0.07056 v -1.904999 q 0.36689,0 0.73377,0 0.381,0 0.74789,0 0.33867,0 0.55034,-0.09878 0.22577,-0.09878 0.32455,-0.310445 0.11289,-0.211666 0.11289,-0.52211 V 34.6203 q 0,-0.239889 -0.0564,-0.409222 -0.0565,-0.169333 -0.16934,-0.282222 -0.11289,-0.112889 -0.31044,-0.169333 -0.18345,-0.07056 -0.45156,-0.07056 -0.62089,0 -1.27,0 -0.635,0 -1.26999,0 -0.62089,0 -1.25589,0 -0.0706,0 -0.11289,-0.04233 -0.0423,-0.04233 -0.0423,-0.112889 0,-0.465666 0,-0.874888 0,-0.409222 0,-0.874888 z m 2.82222,9.87777 q -0.52212,0 -1.016,0 -0.47978,0 -1.016,0 -0.0706,0 -0.11289,-0.04233 -0.0423,-0.04233 -0.0423,-0.112888 0,-1.128888 0,-2.17311 0,-1.058332 0,-2.088443 0,-1.044221 0,-2.102554 0,-1.058332 0,-2.173109 h 2.35656 l -0.16933,0.423333 q 0,0.409222 0,0.804333 0,0.39511 0,0.761999 0,0.888999 0,1.735665 0,0.846666 0,1.721555 0,0.874888 0,1.862665 0,0.381 0,0.733777 0,0.352778 0,0.649111 z"
       style="font-size:14.1111px;line-height:1.25;font-family:Recursive;-inkscape-font-specification:'Recursive, @CRSV=0.50,MONO=1.00,wght=800';font-variation-settings:'CRSV' 0, 'MONO' 1, 'wght' 800;white-space:pre;fill:#f2f2f2"
       id="path22" />
    <path
       d="m -154.55164,41.661738 q -0.0423,0 -0.0706,0 -0.0282,-0.01411 -0.0564,-0.02822 -0.0141,-0.02822 -0.0282,-0.05644 0,-0.02822 0,-0.07055 0,-1.072444 0,-2.144888 0,-1.072443 0,-2.144887 0,-1.086555 0,-2.158998 0,-1.072444 0,-2.144887 0,-0.282222 0,-0.564444 0,-0.282222 0,-0.564444 0.53623,0 1.05834,0 0.52211,0 1.04422,0 0.0564,0 0.0847,0.02822 0.0282,0.01411 0.0423,0.04233 0.0282,0.02822 0.0282,0.08467 0,0.959554 0,1.947331 0,0.973666 0,1.961443 0,0.987777 0,1.975554 0,0.973666 0,1.933221 h 2.667 q 0.42333,0 0.70555,0.09878 0.29634,0.09878 0.47978,0.324555 0.19756,0.225778 0.31044,0.592666 0.127,0.352778 0.21167,0.889 z m 4.50144,-3.245553 q 0.32455,0 0.62089,0 0.29633,0 0.57855,0 0.29633,0 0.62089,0 0.0564,0 0.0847,0.02822 0.0282,0.01411 0.0423,0.04233 0.0282,0.02822 0.0282,0.08467 0,0.268111 0,0.677333 0,0.409221 0,0.874888 0,0.451555 0,0.860777 0,0.409222 0,0.677333 -0.74789,-0.07056 -1.18533,-0.296333 -0.43745,-0.225778 -0.62089,-0.578556 -0.16933,-0.366888 -0.16933,-0.832554 0,-0.183445 0,-0.479778 0,-0.296333 0,-0.592666 0,-0.310444 0,-0.465666 z"
       style="font-size:14.1111px;line-height:1.25;font-family:Recursive;-inkscape-font-specification:'Recursive, @CRSV=0.50,MONO=1.00,wght=800';font-variation-settings:'CRSV' 0, 'MONO' 1, 'wght' 800;white-space:pre;fill:#f2f2f2"
       id="path24" />
  </g>
</svg>
